{"title":"Murder 3 (2013) Hindi 1CD PDVDRip XviD 5.1 [Team Jaffa]","uid":8166180,"size":732258662,"categoryP":"video","categoryS":"movies","magnet":"?xt=urn:btih:6a5ba50cdface138a5341541c47e99aa99004821&amp;dn=Murder+3+%282013%29+Hindi+1CD+PDVDRip+XviD+5.1+%5BTeam+Jaffa%5D&amp;tr=udp%3A%2F%2Ftracker.openbittorrent.com%3A80&amp;tr=udp%3A%2F%2Fopen.demonii.com%3A1337&amp;tr=udp%3A%2F%2Ftracker.coppersurfer.tk%3A6969&amp;tr=udp%3A%2F%2Fexodus.desync.com%3A6969","seeders":1,"leechers":0,"uploader":"HDvideos","files":2,"time":1361339457,"description":"mastitorrents.com\n  &lt;a href=&quot;\nhttp://mastitorrents.com/forums/index.php&quot; rel=&quot;nofollow&quot; target=&quot;_NEW&quot;&gt;\nhttp://mastitorrents.com/forums/index.php&lt;/a&gt;\n  &lt;a href=&quot;\nhttp://thepiratebay.se/user/HDvideos/0/7&quot; rel=&quot;nofollow&quot; target=&quot;_NEW&quot;&gt;\nhttp://thepiratebay.se/user/HDvideos/0/7&lt;/a&gt;\n\nMurder 3 (2013) Hindi 1CD PDVDRip XviD 5.1 [Team Jaffa]\n\nGeneral\nFormat : AVI\nFormat/Info : Audio Video Interleave\nFile size : 698 MiB\nDuration : 1h 53mn\nOverall bit rate : 864 Kbps\n\nVideo\nID : 0\nFormat : MPEG-4 Visual\nFormat profile : Advanced Simple@L5\nFormat settings, BVOP : 2\nFormat settings, QPel : No\nFormat settings, GMC : No warppoints\nFormat settings, Matrix : Default (H.263)\nCodec ID : XVID\nCodec ID/Hint : XviD\nDuration : 1h 53mn\nBit rate : 728 Kbps\nWidth : 640 pixels\nHeight : 288 pixels\nDisplay aspect ratio : 2.222\nFrame rate : 25.000 fps\nColor space : YUV\nChroma subsampling : 4:2:0\nBit depth : 8 bits\nScan type : Progressive\nCompression mode : Lossy\nBits/(Pixel*Frame) : 0.158\nStream size : 588 MiB (84%)\nWriting library : XviD 1.2.1 (UTC 2008-12-04)\n\nAudio\nID : 1\nFormat : AC-3\nFormat/Info : Audio Coding 3\nMode extension : CM (complete main)\nFormat settings, Endianness : Big\nCodec ID : 2000\nDuration : 1h 53mn\nBit rate mode : Constant\nBit rate : 128 Kbps\nChannel(s) : 6 channels\nChannel positions : Front: L C R, Side: L R, LFE\nSampling rate : 48.0 KHz\nBit depth : 16 bits\nCompression mode : Lossy\nStream size : 103 MiB (15%)\nAlignment : Aligned on interleaves\nInterleave, duration : 64 ms (1.60 video frames)\nInterleave, preload duration : 192 ms\nTitle : audio\n\nScreens: &lt;a href=&quot;\nhttp://www.shotpix.com/images/61343961809162684215.png&quot; rel=&quot;nofollow&quot; target=&quot;_NEW&quot;&gt;\nhttp://www.shotpix.com/images/61343961809162684215.png&lt;/a&gt; &lt;a href=&quot;\nhttp://www.shotpix.com/images/80029491321060046406.png&quot; rel=&quot;nofollow&quot; target=&quot;_NEW&quot;&gt;\nhttp://www.shotpix.com/images/80029491321060046406.png&lt;/a&gt; &lt;a href=&quot;\nhttp://www.shotpix.com/images/11385799761197799874.png&quot; rel=&quot;nofollow&quot; target=&quot;_NEW&quot;&gt;\nhttp://www.shotpix.com/images/11385799761197799874.png&lt;/a&gt; &lt;a href=&quot;\nhttp://www.shotpix.com/images/03145436644829041842.png&quot; rel=&quot;nofollow&quot; target=&quot;_NEW&quot;&gt;\nhttp://www.shotpix.com/images/03145436644829041842.png&lt;/a&gt; &lt;a href=&quot;\nhttp://www.shotpix.com/images/89611956588959773948.png&quot; rel=&quot;nofollow&quot; target=&quot;_NEW&quot;&gt;\nhttp://www.shotpix.com/images/89611956588959773948.png&lt;/a&gt; &lt;a href=&quot;\nhttp://www.shotpix.com/images/96584576816381433850.png&quot; rel=&quot;nofollow&quot; target=&quot;_NEW&quot;&gt;\nhttp://www.shotpix.com/images/96584576816381433850.png&lt;/a&gt; &lt;a href=&quot;\nhttp://www.shotpix.com/images/95940549331691562986.png&quot; rel=&quot;nofollow&quot; target=&quot;_NEW&quot;&gt;\nhttp://www.shotpix.com/images/95940549331691562986.png&lt;/a&gt; &lt;a href=&quot;\nhttp://www.shotpix.com/images/88241787826902978461.png&quot; rel=&quot;nofollow&quot; target=&quot;_NEW&quot;&gt;\nhttp://www.shotpix.com/images/88241787826902978461.png&lt;/a&gt; &lt;a href=&quot;\nhttp://www.shotpix.com/images/33597227776055738133.png&quot; rel=&quot;nofollow&quot; target=&quot;_NEW&quot;&gt;\nhttp://www.shotpix.com/images/33597227776055738133.png&lt;/a&gt; &lt;a href=&quot;\nhttp://www.shotpix.com/images/47472998133144765606.png&quot; rel=&quot;nofollow&quot; target=&quot;_NEW&quot;&gt;\nhttp://www.shotpix.com/images/47472998133144765606.png&lt;/a&gt; &lt;a href=&quot;\nhttp://www.shotpix.com/images/77995470340065629867.png&quot; rel=&quot;nofollow&quot; target=&quot;_NEW&quot;&gt;\nhttp://www.shotpix.com/images/77995470340065629867.png&lt;/a&gt;","torrent":{"xt":"urn:btih:6a5ba50cdface138a5341541c47e99aa99004821","amp;dn":"Murder+3+%282013%29+Hindi+1CD+PDVDRip+XviD+5.1+%5BTeam+Jaffa%5D","amp;tr":["udp%3A%2F%2Ftracker.openbittorrent.com%3A80","udp%3A%2F%2Fopen.demonii.com%3A1337","udp%3A%2F%2Ftracker.coppersurfer.tk%3A6969","udp%3A%2F%2Fexodus.desync.com%3A6969"],"infoHash":"6a5ba50cdface138a5341541c47e99aa99004821","infoHashBuffer":{"type":"Buffer","data":[106,91,165,12,223,172,225,56,165,52,21,65,196,126,153,170,153,0,72,33]},"announce":[],"urlList":[]}}